<?xml version="1.0" encoding="UTF-8" standalone="no"?>
<svg
   inkscape:export-ydpi="96"
   inkscape:export-xdpi="96"
   width="400"
   height="300"
   id="svg11300"
   sodipodi:version="0.32"
   inkscape:version="1.2.2 (b0a8486541, 2022-12-01)"
   sodipodi:docname="musicpod round icon.svg"
   inkscape:output_extension="org.inkscape.output.svg.inkscape"
   version="1.0"
   style="display:inline;enable-background:new"
   inkscape:export-filename="C:\Users\sblav\Pictures\preferences-system-network.png"
   xmlns:inkscape="http://www.inkscape.org/namespaces/inkscape"
   xmlns:sodipodi="http://sodipodi.sourceforge.net/DTD/sodipodi-0.dtd"
   xmlns:xlink="http://www.w3.org/1999/xlink"
   xmlns="http://www.w3.org/2000/svg"
   xmlns:svg="http://www.w3.org/2000/svg"
   xmlns:rdf="http://www.w3.org/1999/02/22-rdf-syntax-ns#"
   xmlns:cc="http://creativecommons.org/ns#"
   xmlns:dc="http://purl.org/dc/elements/1.1/">
  <title
     id="title3004">Yaru Icon Theme Template</title>
  <sodipodi:namedview
     stroke="#ef2929"
     fill="#f57900"
     id="base"
     pagecolor="#ffffff"
     bordercolor="#000000"
     borderopacity="0.25490196"
     inkscape:pageopacity="0"
     inkscape:pageshadow="2"
     inkscape:zoom="2"
     inkscape:cx="123.25"
     inkscape:cy="169.25"
     inkscape:current-layer="layer8"
     showgrid="false"
     inkscape:grid-bbox="true"
     inkscape:document-units="px"
     inkscape:showpageshadow="false"
     inkscape:window-width="1854"
     inkscape:window-height="1011"
     inkscape:window-x="0"
     inkscape:window-y="0"
     width="400px"
     height="300px"
     inkscape:snap-nodes="true"
     inkscape:snap-bbox="true"
     gridtolerance="10000"
     inkscape:object-nodes="true"
     inkscape:snap-grids="true"
     showguides="true"
     inkscape:guide-bbox="true"
     inkscape:window-maximized="1"
     inkscape:bbox-paths="true"
     inkscape:snap-bbox-midpoints="true"
     inkscape:snap-global="true"
     inkscape:object-paths="true"
     inkscape:snap-intersection-paths="true"
     inkscape:snap-smooth-nodes="true"
     inkscape:pagecheckerboard="false"
     showborder="false"
     inkscape:document-rotation="0"
     inkscape:deskcolor="#d1d1d1">
    <inkscape:grid
       spacingy="1"
       spacingx="1"
       id="grid5883"
       type="xygrid"
       enabled="true"
       visible="true"
       empspacing="4"
       snapvisiblegridlinesonly="true"
       originx="0"
       originy="0" />
    <inkscape:grid
       type="xygrid"
       id="grid11592"
       empspacing="2"
       visible="true"
       enabled="false"
       spacingx="0.5"
       spacingy="0.5"
       color="#ff0000"
       opacity="0.1254902"
       empcolor="#ff0000"
       empopacity="0.25098039"
       snapvisiblegridlinesonly="true"
       originx="0"
       originy="0" />
  </sodipodi:namedview>
  <defs
     id="defs3">
    <linearGradient
       inkscape:collect="always"
       id="linearGradient38237">
      <stop
         id="stop38233"
         offset="0"
         style="stop-color:#e72662;stop-opacity:1;" />
      <stop
         id="stop38235"
         offset="1"
         style="stop-color:#ff7b66;stop-opacity:1;" />
    </linearGradient>
    <linearGradient
       inkscape:collect="always"
       id="linearGradient927">
      <stop
         style="stop-color:#ffffff;stop-opacity:1;"
         offset="0"
         id="stop923" />
      <stop
         id="stop933"
         offset="0.125"
         style="stop-color:#ffffff;stop-opacity:0.09803922" />
      <stop
         id="stop931"
         offset="0.92500001"
         style="stop-color:#ffffff;stop-opacity:0.09803922" />
      <stop
         style="stop-color:#ffffff;stop-opacity:0.49803922"
         offset="1"
         id="stop925" />
    </linearGradient>
    <linearGradient
       inkscape:collect="always"
       xlink:href="#linearGradient38237"
       id="linearGradient11065"
       x1="104"
       y1="44"
       x2="200"
       y2="268"
       gradientUnits="userSpaceOnUse"
       gradientTransform="translate(0,-5.6126213e-6)" />
    <linearGradient
       inkscape:collect="always"
       xlink:href="#linearGradient927"
       id="linearGradient8590"
       gradientUnits="userSpaceOnUse"
       gradientTransform="matrix(0.23913043,0,0,0.23913032,321.04348,61.043494)"
       x1="96"
       y1="4.0000062"
       x2="96"
       y2="188" />
    <linearGradient
       inkscape:collect="always"
       xlink:href="#linearGradient38237"
       id="linearGradient8588"
       gradientUnits="userSpaceOnUse"
       gradientTransform="matrix(0.94488193,0,0,0.94488229,320.50001,-173.12993)"
       x1="13.735326"
       y1="249.69423"
       x2="38.099998"
       y2="292.76666" />
    <linearGradient
       inkscape:collect="always"
       xlink:href="#linearGradient927"
       id="linearGradient8590-3"
       gradientUnits="userSpaceOnUse"
       gradientTransform="matrix(0.15217394,0,0,0.15217387,321.3913,133.39129)"
       x1="96"
       y1="4.0000062"
       x2="96"
       y2="188" />
    <linearGradient
       inkscape:collect="always"
       xlink:href="#linearGradient38237"
       id="linearGradient8588-0"
       gradientUnits="userSpaceOnUse"
       gradientTransform="matrix(0.60892393,0,0,0.60892417,320.85556,-17.70596)"
       x1="13.735326"
       y1="249.69423"
       x2="38.099998"
       y2="292.76666" />
    <linearGradient
       inkscape:collect="always"
       xlink:href="#linearGradient927"
       id="linearGradient8590-3-3"
       gradientUnits="userSpaceOnUse"
       gradientTransform="matrix(0.11956515,0,0,0.11956513,320.52176,188.52174)"
       x1="95.999878"
       y1="3.9999957"
       x2="95.999878"
       y2="188.00014" />
    <linearGradient
       inkscape:collect="always"
       xlink:href="#linearGradient38237"
       id="linearGradient8588-0-1"
       gradientUnits="userSpaceOnUse"
       gradientTransform="matrix(0.48293959,0,0,0.48293984,319.98888,68.578027)"
       x1="13.735326"
       y1="249.69423"
       x2="38.099998"
       y2="292.76666" />
    <linearGradient
       inkscape:collect="always"
       xlink:href="#linearGradient927"
       id="linearGradient8590-3-3-4"
       gradientUnits="userSpaceOnUse"
       gradientTransform="matrix(0.0760869,0,0,0.07608688,320.69566,236.69567)"
       x1="96"
       y1="4.0000062"
       x2="96"
       y2="188" />
    <linearGradient
       inkscape:collect="always"
       xlink:href="#linearGradient38237"
       id="linearGradient8588-0-1-5"
       gradientUnits="userSpaceOnUse"
       gradientTransform="matrix(0.31496064,0,0,0.31496077,320.16669,158.29007)"
       x1="13.735326"
       y1="249.69423"
       x2="38.099998"
       y2="292.76666" />
    <filter
       inkscape:collect="always"
       style="color-interpolation-filters:sRGB"
       id="filter48952"
       x="-0.048"
       width="1.096"
       y="-0.048"
       height="1.096">
      <feGaussianBlur
         inkscape:collect="always"
         stdDeviation="4.48"
         id="feGaussianBlur48954" />
    </filter>
    <filter
       inkscape:collect="always"
       style="color-interpolation-filters:sRGB"
       id="filter48967"
       x="-0.012"
       width="1.024"
       y="-0.012"
       height="1.024">
      <feGaussianBlur
         inkscape:collect="always"
         stdDeviation="1.12"
         id="feGaussianBlur48969" />
    </filter>
    <filter
       inkscape:collect="always"
       style="color-interpolation-filters:sRGB"
       id="filter27353"
       x="-0.043903228"
       y="-0.051998051"
       width="1.0878065"
       height="1.1039961">
      <feGaussianBlur
         inkscape:collect="always"
         stdDeviation="3.2932098"
         id="feGaussianBlur27355" />
    </filter>
    <filter
       inkscape:collect="always"
       style="color-interpolation-filters:sRGB"
       id="filter27357"
       x="-0.010975807"
       y="-0.012999513"
       width="1.0219516"
       height="1.025999">
      <feGaussianBlur
         inkscape:collect="always"
         stdDeviation="0.82330245"
         id="feGaussianBlur27359" />
    </filter>
    <linearGradient
       inkscape:collect="always"
       xlink:href="#linearGradient27892"
       id="linearGradient27894"
       x1="216"
       y1="116"
       x2="220"
       y2="116"
       gradientUnits="userSpaceOnUse"
       gradientTransform="translate(6.9747813e-5,23.999734)" />
    <linearGradient
       inkscape:collect="always"
       id="linearGradient27892">
      <stop
         style="stop-color:#000000;stop-opacity:1;"
         offset="0"
         id="stop27888" />
      <stop
         style="stop-color:#000000;stop-opacity:0;"
         offset="1"
         id="stop27890" />
    </linearGradient>
    <linearGradient
       inkscape:collect="always"
       xlink:href="#linearGradient27892"
       id="linearGradient27902"
       x1="224"
       y1="116"
       x2="228"
       y2="116"
       gradientUnits="userSpaceOnUse"
       gradientTransform="translate(-7.9999303,23.999734)" />
    <linearGradient
       inkscape:collect="always"
       xlink:href="#linearGradient27892"
       id="linearGradient31920"
       gradientUnits="userSpaceOnUse"
       gradientTransform="translate(-9.9999303,23.999734)"
       x1="242"
       y1="116"
       x2="250.02299"
       y2="116" />
    <linearGradient
       inkscape:collect="always"
       xlink:href="#linearGradient27892"
       id="linearGradient27926"
       x1="204"
       y1="196"
       x2="212"
       y2="196"
       gradientUnits="userSpaceOnUse"
       gradientTransform="translate(3.999744,-404.00007)" />
    <linearGradient
       inkscape:collect="always"
       xlink:href="#linearGradient27892"
       id="linearGradient29543"
       x1="222"
       y1="192"
       x2="222"
       y2="194"
       gradientUnits="userSpaceOnUse"
       gradientTransform="translate(-13.99993,15.999734)" />
    <linearGradient
       inkscape:collect="always"
       xlink:href="#linearGradient27892"
       id="linearGradient39916"
       gradientUnits="userSpaceOnUse"
       gradientTransform="translate(-9.9999303,23.999734)"
       x1="242"
       y1="116"
       x2="250.02299"
       y2="116" />
  </defs>
  <metadata
     id="metadata4">
    <rdf:RDF>
      <cc:Work
         rdf:about="">
        <dc:format>image/svg+xml</dc:format>
        <dc:type
           rdf:resource="http://purl.org/dc/dcmitype/StillImage" />
        <dc:creator>
          <cc:Agent>
            <dc:title>Yaru Team, based on the Suru template by Sam Hewitt and original Suru designs by Matthieu James</dc:title>
          </cc:Agent>
        </dc:creator>
        <dc:source />
        <cc:license
           rdf:resource="http://creativecommons.org/licenses/by-sa/4.0/" />
        <dc:title>Yaru Icon Theme Template</dc:title>
        <dc:subject>
          <rdf:Bag />
        </dc:subject>
        <dc:date />
        <dc:rights>
          <cc:Agent>
            <dc:title />
          </cc:Agent>
        </dc:rights>
        <dc:publisher>
          <cc:Agent>
            <dc:title />
          </cc:Agent>
        </dc:publisher>
        <dc:identifier />
        <dc:relation />
        <dc:language />
        <dc:coverage />
        <dc:description />
        <dc:contributor>
          <cc:Agent>
            <dc:title />
          </cc:Agent>
        </dc:contributor>
      </cc:Work>
      <cc:Work
         rdf:about="">
        <dc:format>image/svg+xml</dc:format>
        <dc:type
           rdf:resource="http://purl.org/dc/dcmitype/StillImage" />
      </cc:Work>
      <cc:License
         rdf:about="http://creativecommons.org/licenses/by-sa/4.0/">
        <cc:permits
           rdf:resource="http://creativecommons.org/ns#Reproduction" />
        <cc:permits
           rdf:resource="http://creativecommons.org/ns#Distribution" />
        <cc:requires
           rdf:resource="http://creativecommons.org/ns#Notice" />
        <cc:requires
           rdf:resource="http://creativecommons.org/ns#Attribution" />
        <cc:permits
           rdf:resource="http://creativecommons.org/ns#DerivativeWorks" />
        <cc:requires
           rdf:resource="http://creativecommons.org/ns#ShareAlike" />
      </cc:License>
    </rdf:RDF>
  </metadata>
  <g
     style="display:inline"
     inkscape:groupmode="layer"
     inkscape:label="Icon"
     id="layer1">
    <g
       style="display:none"
       inkscape:label="Baseplate"
       id="layer7"
       inkscape:groupmode="layer">
      <text
         y="-8.2548828"
         xml:space="preserve"
         x="19.006836"
         style="font-style:normal;font-variant:normal;font-weight:normal;font-stretch:normal;line-height:0%;font-family:'DejaVu Sans';-inkscape-font-specification:'DejaVu Sans';display:inline;fill:#000000;fill-opacity:1;stroke:none;enable-background:new"
         inkscape:label="context"
         id="context"><tspan
           style="font-style:normal;font-variant:normal;font-weight:normal;font-stretch:normal;font-size:18px;line-height:1.25;font-family:'DejaVu Sans';-inkscape-font-specification:'DejaVu Sans'"
           y="-8.2548828"
           x="19.006836"
           sodipodi:role="line"
           id="tspan3933">apps</tspan></text>
      <text
         y="-8.2548828"
         xml:space="preserve"
         x="146.48828"
         style="font-style:normal;font-variant:normal;font-weight:bold;font-stretch:normal;line-height:0%;font-family:'DejaVu Sans';-inkscape-font-specification:'DejaVu Sans Bold';text-align:start;writing-mode:lr-tb;text-anchor:start;display:inline;fill:#000000;fill-opacity:1;stroke:none;enable-background:new"
         inkscape:label="icon-name"
         id="icon-name"><tspan
           style="font-style:normal;font-variant:normal;font-weight:bold;font-stretch:normal;font-size:18px;line-height:1.25;font-family:'DejaVu Sans';-inkscape-font-specification:'DejaVu Sans Bold'"
           y="-8.2548828"
           x="146.48828"
           sodipodi:role="line"
           id="tspan3937">musicpod</tspan></text>
      <rect
         style="display:inline;overflow:visible;visibility:visible;fill:#cdcdcd;fill-opacity:1;fill-rule:nonzero;stroke:none;stroke-width:2;marker:none;enable-background:accumulate"
         id="rect16x16"
         width="16"
         height="16"
         x="320"
         y="236"
         inkscape:label="16x16" />
      <rect
         style="display:inline;overflow:visible;visibility:visible;fill:#cdcdcd;fill-opacity:1;fill-rule:nonzero;stroke:none;stroke-width:2;marker:none;enable-background:accumulate"
         id="rect24x24"
         width="24"
         height="24"
         x="320"
         y="188"
         inkscape:label="24x24" />
      <rect
         style="display:inline;overflow:visible;visibility:visible;fill:#cdcdcd;fill-opacity:1;fill-rule:nonzero;stroke:none;stroke-width:2;marker:none;enable-background:accumulate"
         id="rect32x32"
         width="32"
         height="32"
         x="320"
         y="132"
         inkscape:label="32x32" />
      <rect
         inkscape:label="48x48"
         y="60"
         x="320"
         height="48"
         width="48"
         id="rect48x48"
         style="display:inline;overflow:visible;visibility:visible;fill:#cdcdcd;fill-opacity:1;fill-rule:nonzero;stroke:none;stroke-width:2;marker:none;enable-background:accumulate" />
      <rect
         style="display:inline;overflow:visible;visibility:visible;fill:#cdcdcd;fill-opacity:1;fill-rule:nonzero;stroke:none;stroke-width:2;marker:none;enable-background:accumulate"
         id="rect3951"
         width="256"
         height="256"
         x="24"
         y="28"
         inkscape:label="48x48" />
    </g>
    <g
       inkscape:groupmode="layer"
       id="layer3"
       inkscape:label="Optional outline for white icons"
       style="display:none">
      <circle
         style="display:inline;opacity:0.2;fill:#000000;fill-opacity:1;stroke:#000000;stroke-width:4;stroke-linecap:round;stroke-linejoin:round;stroke-miterlimit:4;stroke-dasharray:none;stroke-opacity:1;enable-background:new"
         id="path11042-53"
         r="112"
         cy="155.99998"
         cx="152" />
    </g>
    <g
       inkscape:groupmode="layer"
       id="layer8"
       inkscape:label="Backgrounds"
       style="display:inline">
      <circle
         style="display:inline;opacity:0.1;fill:#000000;fill-opacity:1;stroke:none;stroke-width:1;stroke-linecap:round;stroke-linejoin:round;stroke-miterlimit:4;stroke-dasharray:none;stroke-opacity:1;filter:url(#filter48967);enable-background:new"
         id="path11042-4"
         r="112"
         cy="157"
         cx="152"
         inkscape:export-filename="../Pictures/musicpod.png"
         inkscape:export-xdpi="96"
         inkscape:export-ydpi="96" />
      <circle
         style="display:inline;opacity:0.2;fill:#000000;fill-opacity:1;stroke:none;stroke-width:1;stroke-linecap:round;stroke-linejoin:round;stroke-miterlimit:4;stroke-dasharray:none;stroke-opacity:1;filter:url(#filter48952);enable-background:new"
         id="path11042-9"
         r="112"
         cy="157"
         cx="152" />
      <circle
         style="display:inline;opacity:1;fill:url(#linearGradient11065);fill-opacity:1;stroke:none;stroke-width:1;stroke-linecap:round;stroke-linejoin:round;stroke-miterlimit:4;stroke-dasharray:none;stroke-opacity:1;enable-background:new"
         id="path11042"
         r="112"
         cy="155.99998"
         cx="152" />
      <path
         style="display:inline;opacity:1;fill:#ffffff;fill-opacity:1;stroke:none;stroke-width:1;stroke-linecap:round;stroke-linejoin:round;stroke-miterlimit:4;stroke-dasharray:none;stroke-opacity:1;enable-background:new"
         id="path11042-5"
         r="112"
         cy="156"
         cx="152"
         d=""
         inkscape:connector-curvature="0" />
      <circle
         style="display:inline;opacity:0.1;fill:#000000;fill-opacity:1;stroke:none;stroke-width:1.95437694;stroke-linecap:round;stroke-linejoin:round;stroke-miterlimit:4;stroke-dasharray:none;stroke-opacity:1;enable-background:new"
         id="path9498-0-0"
         cx="-344"
         cy="-85.000015"
         transform="scale(-1)"
         r="23" />
      <circle
         style="display:inline;opacity:1;fill:url(#linearGradient8588);fill-opacity:1.0;stroke:none;stroke-width:1.86940372;stroke-linecap:round;stroke-linejoin:round;stroke-miterlimit:4;stroke-dasharray:none;stroke-opacity:1;enable-background:new"
         id="path9498-6"
         cx="344"
         cy="84"
         r="22.5" />
      <circle
         style="display:inline;opacity:0.1;fill:#000000;fill-opacity:1;stroke:none;stroke-width:1.95437694;stroke-linecap:round;stroke-linejoin:round;stroke-miterlimit:4;stroke-dasharray:none;stroke-opacity:1;enable-background:new"
         id="path9498-0-0-2"
         cx="-336"
         cy="-149"
         transform="scale(-1)"
         r="14.999996" />
      <circle
         style="display:inline;opacity:1;fill:url(#linearGradient8588-0);fill-opacity:1.0;stroke:none;stroke-width:1.86940372;stroke-linecap:round;stroke-linejoin:round;stroke-miterlimit:4;stroke-dasharray:none;stroke-opacity:1;enable-background:new"
         id="path9498-6-5"
         cx="336"
         cy="148"
         r="14.5" />
      <ellipse
         style="display:inline;opacity:0.1;fill:#000000;fill-opacity:1;stroke:none;stroke-width:1.95437694;stroke-linecap:round;stroke-linejoin:round;stroke-miterlimit:4;stroke-dasharray:none;stroke-opacity:1;enable-background:new"
         id="path9498-0-0-2-3"
         cx="-332"
         cy="-200.52327"
         transform="scale(-1)"
         rx="11.999997"
         ry="11.476745" />
      <ellipse
         style="display:inline;opacity:1;fill:url(#linearGradient8588-0-1);fill-opacity:1.0;stroke:none;stroke-width:1.8694036;stroke-linecap:round;stroke-linejoin:round;stroke-miterlimit:4;stroke-dasharray:none;stroke-opacity:1;enable-background:new"
         id="path9498-6-5-6"
         cx="332"
         cy="200"
         rx="11.499999"
         ry="11.5" />
      <ellipse
         style="display:inline;opacity:0.1;fill:#000000;fill-opacity:1;stroke:none;stroke-width:1.95437706;stroke-linecap:round;stroke-linejoin:round;stroke-miterlimit:4;stroke-dasharray:none;stroke-opacity:1;enable-background:new"
         id="path9498-0-0-2-3-3"
         cx="-328"
         cy="-244.5"
         transform="scale(-1)"
         rx="6.9999981"
         ry="6.5" />
      <circle
         style="display:inline;opacity:1;fill:url(#linearGradient8588-0-1-5);fill-opacity:1.0;stroke:none;stroke-width:1.86940384;stroke-linecap:round;stroke-linejoin:round;stroke-miterlimit:4;stroke-dasharray:none;stroke-opacity:1;enable-background:new"
         id="path9498-6-5-6-8"
         cx="328"
         cy="244"
         r="7.5" />
      <path
         id="path759-3-2"
         style="color:#000000;display:inline;opacity:0.1;fill:#000000;stroke-linecap:round;stroke-linejoin:round;-inkscape-stroke:none;filter:url(#filter27353);enable-background:new"
         d="m 232.00021,103.99973 c 0,4.97636 -8.87916,5.68751 -12,12.75 -0.002,0.005 -0.004,0.0106 -0.006,0.0156 -0.14989,0.33946 -0.29717,0.68355 -0.44336,1.03125 -0.10646,0.25297 -0.21186,0.50865 -0.31641,0.76562 -0.45325,1.11569 -0.88893,2.26541 -1.30664,3.44532 -0.0517,0.14569 -0.10118,0.29295 -0.15234,0.43945 -0.25153,0.72183 -0.49743,1.45077 -0.73633,2.18945 -0.0743,0.22937 -0.14954,0.45676 -0.22266,0.6875 -0.27988,0.8847 -0.55374,1.77622 -0.8164,2.67578 0,-4.41826 -3.58173,-8 -8,-8 -4.41828,0 -8,3.58174 -8,8 v 64 c 0,2.20914 1.79086,20 4,20 v 2 6 4 c 0,0 -0.0552,3.165 -1.57813,6.21094 -1.52283,3.04594 -3.75508,5.78906 -10.42173,5.78906 -1,0 -1.49447,-0.2064 -2.29688,-1 -0.80241,-0.79359 -1.75216,-2.32676 -2.5625,-4.5957 -1.62067,-4.53789 -2.65604,-27.79901 -3.14648,-36.62695 -0.98088,-17.65589 0.006,-41.66628 0.006,-65.77735 0,-9.21666 0.16131,-17.43779 -2.22656,-24.23828 -1.19395,-3.40025 -3.18376,-6.518896 -6.24414,-8.640616 -3.06054,-2.12173 -6.96418,-3.1211 -11.52944,-3.1211 -8.31241,0 -14.27715,5.17443 -16.92188,11.935546 -2.64471,6.76112 -3.07812,15.09247 -3.07812,24.06445 0,32.12175 1.41917,54.28898 0.20898,67.63867 -0.60509,6.67486 -1.93379,10.9454 -3.65234,13.15821 -1.71855,2.21281 -3.82731,3.20312 -8.55664,3.20312 -4.33333,0 -6.26737,-0.82362 -7.85938,-2.74218 -1.592,-1.91856 -2.95312,-5.78323 -3.66601,-12.19922 -1.42578,-12.832 -0.47461,-34.98023 -0.47461,-69.0586 0,-9.18638 -0.36137,-17.50609 -2.98633,-24.23828 -2.62496,-6.732186 -8.64847,-11.761716 -17.01367,-11.761716 -4.481957,0 -10.327907,1.63783 -14.140627,7.25196 -3.8127,5.614106 -5.85937,14.345756 -5.85937,28.748036 v 48 c 0,5.44444 -1.13423,8.55551 -2.38086,10.30078 -1.24663,1.74529 -2.65859,2.42821 -4.4043,2.77735 -3.4914,0.69828 -7.73047,-0.79297 -7.73047,-0.79297 -2.05111,-0.82027 -4.378831,0.17745 -5.19922,2.22851 -0.821572,2.05166 0.17638,4.3808 2.22852,5.20118 0,0 5.76096,2.50874 12.26953,1.20703 3.25429,-0.65086 6.84235,-2.46795 9.3457,-5.97266 2.50337,-3.50471 3.8711,-8.39367 3.8711,-14.94922 v -48 c 0,-13.59765 2.17712,-20.86609 4.47656,-24.25195 2.29944,-3.38586 4.45402,-3.748046 7.523437,-3.748046 5.73506,0 7.71058,1.923386 9.56054,6.667966 1.84996,4.74459 2.43946,12.42565 2.43946,21.33203 0,33.92151 -1.05078,55.77346 0.52344,69.94141 0.78709,7.08397 2.17795,12.46935 5.46093,16.42578 3.28299,3.95643 8.34897,5.63281 14.01563,5.63281 6.19407,0 11.54541,-2.0097 14.875,-6.29687 3.32958,-4.28719 4.63674,-10.01668 5.30078,-17.3418 1.32809,-14.65023 -0.17578,-36.4832 -0.17578,-68.36133 0,-8.64774 0.63648,-16.31647 2.52734,-21.15039 1.89087,-4.8339 3.92748,-6.849606 9.47266,-6.849606 3.43471,0 5.5311,0.697266 6.9707,1.695316 1.4396,0.99805 2.44785,2.42122 3.25391,4.71679 1.61211,4.59115 1.77539,12.37123 1.77539,21.58789 0,23.88885 -1.0134,47.87861 0.006,66.22266 0.50955,9.17202 1.47224,32.91095 3.60156,38.87305 1.06466,2.98104 2.42938,5.57289 4.4707,7.59179 2.0412,2.01891 4.92174,3.3125 7.92174,3.3125 9.33331,0 15.09914,-5.25688 17.57617,-10.21094 2.47703,-4.95404 2.42383,-9.78906 2.42383,-9.78906 v -12 c 2.20914,0 4,-17.79086 4,-20 v -56 c 0.26266,0.89957 0.53652,1.79108 0.8164,2.67578 0.0731,0.23075 0.14834,0.45813 0.22266,0.6875 0.2389,0.73869 0.4848,1.46763 0.73633,2.18946 0.0512,0.1465 0.10065,0.29376 0.15234,0.43945 0.41771,1.17991 0.85339,2.32963 1.30664,3.44531 0.10455,0.25698 0.20995,0.51265 0.31641,0.76563 3.19105,7.58952 7.25355,13.30325 12.44922,13.79687 8.86399,0 8,-7.13602 8,-16 v -24 c 0,-8.86398 -8,-24.863986 -8,-16 z"
         sodipodi:nodetypes="scccccccccssscccccsssssscsssssssssssssssscccssssssssssssssssssscscssccsccccccccssss" />
      <path
         id="path759-3"
         style="color:#000000;display:inline;opacity:0.05;fill:#000000;stroke-linecap:round;stroke-linejoin:round;-inkscape-stroke:none;filter:url(#filter27357);enable-background:new"
         d="m 232.00021,101.99973 c -4.95405,0.47067 -8.87916,5.68751 -12,12.75 -0.002,0.005 -0.004,0.0106 -0.006,0.0156 -0.14989,0.33946 -0.29717,0.68355 -0.44336,1.03125 -0.10646,0.25297 -0.21186,0.50865 -0.31641,0.76562 -0.45325,1.11569 -0.88893,2.26541 -1.30664,3.44532 -0.0517,0.14569 -0.10118,0.29295 -0.15234,0.43945 -0.25153,0.72183 -0.49743,1.45077 -0.73633,2.18945 -0.0743,0.22937 -0.14954,0.45676 -0.22266,0.6875 -0.27988,0.8847 -0.55374,1.77622 -0.8164,2.67578 0,-4.41826 -3.58173,-8 -8,-8 -4.41828,0 -8,3.58174 -8,8 v 64 c 0,2.20914 1.79086,20 4,20 v 2 6 4 c 0,0 -0.0552,3.165 -1.57813,6.21094 -1.52283,3.04594 -3.75508,5.78906 -10.42173,5.78906 -1,0 -1.49447,-0.2064 -2.29688,-1 -0.80241,-0.79359 -1.75216,-2.32676 -2.5625,-4.5957 -1.62067,-4.53789 -2.65604,-11.79901 -3.14648,-20.62695 -0.98088,-17.65589 0.006,-57.66628 0.006,-81.77735 0,-9.21666 0.16131,-17.43779 -2.22656,-24.23828 -1.19395,-3.400246 -3.18376,-6.518896 -6.24414,-8.640616 -3.06054,-2.1217 -6.96418,-3.12107 -11.52944,-3.12107 -8.31241,0 -14.27715,5.17443 -16.92188,11.935546 -2.64471,6.76112 -3.07812,15.09247 -3.07812,24.06445 0,32.12175 1.41917,54.28898 0.20898,67.63867 -0.60509,6.67486 -1.93379,10.9454 -3.65234,13.15821 -1.71855,2.21281 -3.82731,3.20312 -8.55664,3.20312 -4.33333,0 -6.26737,-0.82362 -7.85938,-2.74218 -1.592,-1.91856 -2.95312,-5.78323 -3.66601,-12.19922 -1.42578,-12.832 -0.47461,-34.98023 -0.47461,-69.0586 0,-9.18638 -0.36137,-17.50609 -2.98633,-24.23828 -2.62496,-6.732186 -8.64847,-11.761716 -17.01367,-11.761716 -4.481957,0 -10.327907,1.63783 -14.140627,7.25196 -3.8127,5.614106 -5.85937,14.345756 -5.85937,28.748036 v 48 c 0,5.44444 -1.13423,8.55551 -2.38086,10.30078 -1.24663,1.74529 -2.65859,2.42821 -4.4043,2.77735 -3.4914,0.69828 -7.73047,-0.79297 -7.73047,-0.79297 -2.05111,-0.82027 -4.378831,0.17745 -5.19922,2.22851 -0.821572,2.05166 0.17638,4.3808 2.22852,5.20118 0,0 5.76096,2.50874 12.26953,1.20703 3.25429,-0.65086 6.84235,-2.46795 9.3457,-5.97266 2.50337,-3.50471 3.8711,-8.39367 3.8711,-14.94922 v -48 c 0,-13.59765 2.17712,-20.86609 4.47656,-24.25195 2.29944,-3.385856 4.45402,-3.748046 7.523437,-3.748046 5.73506,0 7.71058,1.92339 9.56054,6.667966 1.84996,4.74459 2.43946,12.42565 2.43946,21.33203 0,33.92151 -1.05078,55.77346 0.52344,69.94141 0.78709,7.08397 2.17795,12.46935 5.46093,16.42578 3.28299,3.95643 8.34897,5.63281 14.01563,5.63281 6.19407,0 11.54541,-2.0097 14.875,-6.29687 3.32958,-4.28719 4.63674,-10.01668 5.30078,-17.3418 1.32809,-14.65023 -0.17578,-36.4832 -0.17578,-68.36133 0,-8.64774 0.63648,-16.31647 2.52734,-21.15039 1.89087,-4.8339 3.92748,-6.849606 9.47266,-6.849606 3.43471,0 5.5311,0.69727 6.9707,1.69532 1.4396,0.998046 2.44785,2.421216 3.25391,4.716786 1.61211,4.59115 1.77539,12.37123 1.77539,21.58789 0,23.88885 -1.0134,63.87861 0.006,82.22266 0.50955,9.17202 1.47224,16.91095 3.60156,22.87305 1.06466,2.98104 2.42938,5.57289 4.4707,7.59179 2.0412,2.01891 4.92174,3.3125 7.92174,3.3125 9.33331,0 15.09914,-5.25688 17.57617,-10.21094 2.47703,-4.95404 2.42383,-9.78906 2.42383,-9.78906 v -12 c 2.20914,0 4,-17.79086 4,-20 v -56 c 0.26266,0.89957 0.53652,1.79108 0.8164,2.67578 0.0731,0.23075 0.14834,0.45813 0.22266,0.6875 0.2389,0.73869 0.4848,1.46763 0.73633,2.18946 0.0512,0.1465 0.10065,0.29376 0.15234,0.43945 0.41771,1.17991 0.85339,2.32963 1.30664,3.44531 0.10455,0.25698 0.20995,0.51265 0.31641,0.76563 3.19105,7.58952 7.25355,13.30325 12.44922,13.79687 8.86399,0 8,-7.13602 8,-16 v -24 c 0,-8.86398 0.86399,-16 -8,-16 z"
         sodipodi:nodetypes="ccccccccccssscccccsssssscsssssssssssssssscccssssssssssssssssssscscssccsccccccccssc" />
      <path
         style="display:inline;fill:none;stroke:#fdf7fb;stroke-width:8;stroke-linecap:round;stroke-linejoin:round;stroke-dasharray:none;stroke-opacity:1;enable-background:new"
         d="m 64.000073,187.99973 c 0,0 20,8 20,-16 v -48 c 0,-27.999996 8.44862,-31.999996 15.999997,-31.999996 14.1003,0 16,13.907196 16,31.999996 0,68 -4,88 16,88 21.84687,0 16,-24 16,-88 0,-17.61977 2.14239,-31.999996 16,-31.999996 16,0 16.01606,13.566636 16,31.999996 C 179.91553,221.03857 178.30981,236.54086 196,236 c 9.44058,-0.28863 12.43541,-6.78538 11.9694,-23.88412 -0.0697,-2.5593 0.0263,-12.40082 0.0263,-12.40082"
         id="path759"
         sodipodi:nodetypes="cssssssssssc" />
      <path
         id="path4911"
         style="display:inline;fill:#faf8f6;fill-opacity:1;stroke:none;stroke-width:16;stroke-linecap:round;stroke-linejoin:round;stroke-dasharray:none;stroke-opacity:1;enable-background:new"
         d="m 232.00007,99.99973 c -7.3574,0.699 -12.45114,11.84593 -16,24 -8.19705,-0.23204 -8.19705,32 0,32 3.54886,12.15408 8.6426,23.301 16,24 l 2,-2 v -22 -32 -22 z"
         sodipodi:nodetypes="ccccccccc" />
      <path
         id="rect11685"
         style="display:inline;opacity:0.07;fill:url(#linearGradient27894);fill-opacity:1;stroke:none;stroke-width:16;stroke-linecap:round;stroke-linejoin:round;stroke-dasharray:none;stroke-opacity:1;enable-background:new"
         d="m 220.00007,112.74973 c -1.51401,3.42621 -2.84074,7.27979 -4,11.25 v 32 c 1.15926,3.97021 2.48599,7.82379 4,11.25 z" />
      <path
         id="rect11685-1"
         style="display:inline;opacity:0.07;fill:url(#linearGradient27902);fill-opacity:1;stroke:none;stroke-width:16;stroke-linecap:round;stroke-linejoin:round;stroke-dasharray:none;stroke-opacity:1;enable-background:new"
         d="m 220.00007,112.74973 c -1.51401,3.42621 -2.84074,7.27979 -4,11.25 v 32 c 1.15926,3.97021 2.48599,7.82379 4,11.25 z" />
      <path
         id="path2616"
         style="color:#000000;display:inline;fill:#f7f6f3;fill-opacity:1;stroke-linecap:round;stroke-linejoin:round;-inkscape-stroke:none;enable-background:new"
         d="m 208.00007,107.99973 c -4.41828,0 -8,3.58173 -8,8 v 88 c 0,2.20914 1.79086,4 4,4 h 8 c 2.20914,0 4,-1.79086 4,-4 v -88 c 0,-4.41827 -3.58172,-8 -8,-8 z"
         sodipodi:nodetypes="ssssssss" />
      <path
         id="rect5535"
         style="display:inline;fill:#efece6;fill-opacity:1;stroke:none;stroke-width:16;stroke-linecap:round;stroke-linejoin:round;stroke-dasharray:none;stroke-opacity:1;enable-background:new"
         d="m 232.00007,99.99973 v 80 c 8.86399,0 8,-7.13601 8,-16 v -48 c 0,-8.86399 0.86399,-16 -8,-16 z"
         sodipodi:nodetypes="ccssc" />
      <path
         id="rect5535-2"
         style="display:inline;opacity:0.07;fill:url(#linearGradient39916);fill-opacity:1;stroke:none;stroke-width:16;stroke-linecap:round;stroke-linejoin:round;stroke-dasharray:none;stroke-opacity:1;enable-background:new"
         d="m 232.00007,99.99973 v 80 c 8.864,0 8,-7.13601 8,-16 v -48 c 0,-8.86399 0.864,-16 -8,-16 z"
         sodipodi:nodetypes="ccssc" />
      <path
         id="rect5535-2-9"
         style="display:inline;opacity:0.07;fill:url(#linearGradient31920);fill-opacity:1;stroke:none;stroke-width:16;stroke-linecap:round;stroke-linejoin:round;stroke-dasharray:none;stroke-opacity:1;enable-background:new"
         d="m 232.00007,99.99973 v 80 c 8.864,0 8,-7.13601 8,-16 v -48 c 0,-8.86399 0.864,-16 -8,-16 z"
         sodipodi:nodetypes="ccssc" />
      <rect
         style="display:inline;opacity:0.07;fill:url(#linearGradient27926);fill-opacity:1;stroke:none;stroke-width:16;stroke-linecap:round;stroke-linejoin:round;stroke-dasharray:none;stroke-opacity:1;enable-background:new"
         id="rect11578"
         width="8"
         height="8"
         x="207.99974"
         y="-212.00006"
         transform="rotate(90)" />
      <rect
         style="display:inline;opacity:0.07;fill:url(#linearGradient29543);fill-opacity:1;stroke:none;stroke-width:16;stroke-linecap:round;stroke-linejoin:round;stroke-dasharray:none;stroke-opacity:1;enable-background:new"
         id="rect11578-3"
         width="8"
         height="2"
         x="204.00006"
         y="207.99974" />
    </g>
    <g
       inkscape:groupmode="layer"
       id="layer6"
       inkscape:label="Pictograms and folds"
       style="display:inline" />
    <g
       inkscape:groupmode="layer"
       id="layer2"
       inkscape:label="Borders"
       style="display:inline">
      <circle
         style="display:inline;opacity:0.4;vector-effect:none;fill:none;fill-opacity:1;stroke:#000000;stroke-width:1;stroke-linecap:butt;stroke-linejoin:round;stroke-miterlimit:4;stroke-dasharray:none;stroke-dashoffset:6.5999999;stroke-opacity:1;enable-background:new"
         id="path1377"
         cx="328.00003"
         cy="244.00002"
         r="7.5000005" />
      <ellipse
         style="display:inline;opacity:0.4;vector-effect:none;fill:none;fill-opacity:1;stroke:#000000;stroke-width:1;stroke-linecap:butt;stroke-linejoin:round;stroke-miterlimit:4;stroke-dasharray:none;stroke-dashoffset:6.5999999;stroke-opacity:1;enable-background:new"
         id="path1384"
         cx="332"
         cy="199.97676"
         rx="11.454546"
         ry="11.476745" />
      <circle
         style="display:inline;opacity:0.4;vector-effect:none;fill:none;fill-opacity:1;stroke:#000000;stroke-width:1;stroke-linecap:butt;stroke-linejoin:round;stroke-miterlimit:4;stroke-dasharray:none;stroke-dashoffset:6.5999999;stroke-opacity:1;enable-background:new"
         id="path1389"
         cx="336"
         cy="148"
         r="14.5" />
      <circle
         style="display:inline;opacity:0.4;vector-effect:none;fill:none;fill-opacity:1;stroke:#000000;stroke-width:1;stroke-linecap:butt;stroke-linejoin:round;stroke-miterlimit:4;stroke-dasharray:none;stroke-dashoffset:6.5999999;stroke-opacity:1;enable-background:new"
         id="path1389-3"
         cx="344"
         cy="84"
         r="22.5" />
      <path
         inkscape:connector-curvature="0"
         style="display:inline;opacity:0.2;fill:#000000;fill-opacity:1;stroke:none;stroke-width:1;stroke-linecap:round;stroke-linejoin:round;stroke-miterlimit:4;stroke-dasharray:none;stroke-opacity:1;enable-background:new"
         d="m 152,267.99999 a 112,112 0 0 1 -112,-112 112,112 0 0 1 0.04102,-1.16992 A 112,112 0 0 0 152,265.99999 112,112 0 0 0 263.95898,155.16991 a 112,112 0 0 1 0.041,0.83008 112,112 0 0 1 -112,112 z"
         id="path11042-1-7" />
      <path
         style="display:inline;opacity:0.3;fill:#ffffff;fill-opacity:1;stroke:none;stroke-width:1;stroke-linecap:round;stroke-linejoin:round;stroke-miterlimit:4;stroke-dasharray:none;stroke-opacity:1;enable-background:new"
         d="M 152,43.999994 A 112,112 0 0 0 40,155.99999 112,112 0 0 0 40.04102,157.16991 112,112 0 0 1 152,45.999994 112,112 0 0 1 263.95898,156.83007 a 112,112 0 0 0 0.041,-0.83008 112,112 0 0 0 -112,-111.999996 z"
         id="path11042-1"
         inkscape:connector-curvature="0" />
    </g>
    <g
       inkscape:groupmode="layer"
       id="layer5"
       inkscape:label="Highlights"
       style="display:inline;opacity:0.8">
      <path
         style="display:inline;opacity:1;fill:url(#linearGradient8590);fill-opacity:1;stroke:none;stroke-width:1.8694036;stroke-linecap:round;stroke-linejoin:round;stroke-miterlimit:4;stroke-dasharray:none;stroke-opacity:1;enable-background:new"
         d="M 344,62.000016 A 22,21.99999 0 0 0 322,84.000013 22,21.99999 0 0 0 344,106 22,21.99999 0 0 0 366,84.000013 22,21.99999 0 0 0 344,62.000016 Z m 0,0.956532 A 21.043478,21.043469 0 0 1 365.04348,84.000013 21.043478,21.043469 0 0 1 344,105.04348 21.043478,21.043469 0 0 1 322.95652,84.000013 21.043478,21.043469 0 0 1 344,62.956548 Z"
         id="path9498-1-6"
         inkscape:connector-curvature="0" />
      <path
         style="display:inline;opacity:1;fill:url(#linearGradient8590-3);fill-opacity:1;stroke:none;stroke-width:1.8694036;stroke-linecap:round;stroke-linejoin:round;stroke-miterlimit:4;stroke-dasharray:none;stroke-opacity:1;enable-background:new"
         d="m 336,134 c -7.73199,0 -14,6.26802 -14,14 0,7.73198 6.26801,14 14,14 7.73199,0 14,-6.26802 14,-14 0,-7.73198 -6.26801,-14 -14,-14 z m 0,1 a 13,13 0 0 1 13,13 13,13 0 0 1 -13,13 13,13 0 0 1 -13,-13 13,13 0 0 1 13,-13 z"
         id="path9498-1-6-7"
         inkscape:connector-curvature="0" />
      <path
         style="display:inline;opacity:1;fill:url(#linearGradient8590-3-3);fill-opacity:1;stroke:none;stroke-width:1.8694036;stroke-linecap:round;stroke-linejoin:round;stroke-miterlimit:4;stroke-dasharray:none;stroke-opacity:1;enable-background:new"
         d="m 332,189 c -6.07513,0 -11,4.92488 -11,11 0,6.07513 4.92487,11 11,11 6.07513,0 11,-4.92487 11,-11 0,-6.07512 -4.92487,-11 -11,-11 z m 0,1 a 10,10 0 0 1 10,10 10,10 0 0 1 -10,10 10,10 0 0 1 -10,-10 10,10 0 0 1 10,-10 z"
         id="path9498-1-6-7-2"
         inkscape:connector-curvature="0" />
      <path
         style="display:inline;opacity:1;fill:url(#linearGradient8590-3-3-4);fill-opacity:1;stroke:none;stroke-width:1.86940372;stroke-linecap:round;stroke-linejoin:round;stroke-miterlimit:4;stroke-dasharray:none;stroke-opacity:1;enable-background:new"
         d="m 328,237 c -3.86599,0 -7,3.13402 -7,7 0,3.86599 3.13401,7 7,7 3.866,0 7,-3.13401 7,-7 0,-3.86598 -3.134,-7 -7,-7 z m 0,1 a 6,6 0 0 1 6,6 6,6 0 0 1 -6,6 6,6 0 0 1 -6,-6 6,6 0 0 1 6,-6 z"
         id="path9498-1-6-7-2-0"
         inkscape:connector-curvature="0" />
    </g>
  </g>
</svg>
