<?xml version="1.0" encoding="UTF-8" standalone="no"?>
<!-- Created with Inkscape (http://www.inkscape.org/) -->

<svg
   width="60mm"
   height="60mm"
   viewBox="0 0 60 60"
   version="1.1"
   id="svg1"
   inkscape:version="1.3.2 (091e20e, 2023-11-25)"
   sodipodi:docname="monochrome.svg"
   inkscape:export-filename="monochrome.png"
   inkscape:export-xdpi="96"
   inkscape:export-ydpi="96"
   xmlns:inkscape="http://www.inkscape.org/namespaces/inkscape"
   xmlns:sodipodi="http://sodipodi.sourceforge.net/DTD/sodipodi-0.dtd"
   xmlns="http://www.w3.org/2000/svg"
   xmlns:svg="http://www.w3.org/2000/svg">
  <sodipodi:namedview
     id="namedview1"
     pagecolor="#ffffff"
     bordercolor="#000000"
     borderopacity="0.25"
     inkscape:showpageshadow="2"
     inkscape:pageopacity="0.0"
     inkscape:pagecheckerboard="0"
     inkscape:deskcolor="#d1d1d1"
     inkscape:document-units="mm"
     inkscape:zoom="1.5525245"
     inkscape:cx="76.005243"
     inkscape:cy="82.768421"
     inkscape:window-width="1512"
     inkscape:window-height="916"
     inkscape:window-x="0"
     inkscape:window-y="38"
     inkscape:window-maximized="1"
     inkscape:current-layer="layer1"
     inkscape:export-bgcolor="#71717100" />
  <defs
     id="defs1" />
  <g
     inkscape:label="Ebene 1"
     inkscape:groupmode="layer"
     id="layer1">
    <g
       id="g1">
      <path
         style="display:inline;fill:none;stroke:#ffffff;stroke-width:2.11667;stroke-linecap:round;stroke-linejoin:round;stroke-dasharray:none;stroke-opacity:1;enable-background:new"
         d="m 7.2427924,36.348613 c 0,0 5.2916666,2.116666 5.2916666,-4.233334 V 19.41528 c 0,-7.408332 2.235365,-8.466665 4.233333,-8.466665 3.730705,0 4.233333,3.679612 4.233333,8.466665 0,17.991667 -1.058334,23.283333 4.233333,23.283333 5.780318,0 4.233333,-6.35 4.233333,-23.283333 0,-4.661897 0.566841,-8.466665 4.233334,-8.466665 4.233333,0 4.237582,3.589505 4.233333,8.466665 -0.02237,25.674859 -0.447215,29.776506 4.233315,29.633404 2.49782,-0.07637 3.290202,-1.795299 3.166903,-6.31934 -0.01844,-0.677148 0.007,-3.28105 0.007,-3.28105"
         id="path759"
         sodipodi:nodetypes="cssssssssssc" />
      <path
         id="path4911"
         style="display:inline;fill:#ffffff;fill-opacity:1;stroke:none;stroke-width:4.23333;stroke-linecap:round;stroke-linejoin:round;stroke-dasharray:none;stroke-opacity:1;enable-background:new"
         d="m 51.692791,13.06528 c -1.946644,0.184944 -3.294364,3.134235 -4.233333,6.349999 -2.168803,-0.06139 -2.168803,8.466667 0,8.466667 0.938969,3.215767 2.286688,6.165056 4.233333,6.35 l 0.529167,-0.529167 v -5.820833 -8.466667 -5.820832 z"
         sodipodi:nodetypes="ccccccccc" />
      <path
         id="path2616"
         style="color:#000000;display:inline;fill:#ffffff;fill-opacity:1;stroke-width:0.264583;stroke-linecap:round;stroke-linejoin:round;-inkscape-stroke:none;enable-background:new"
         d="m 45.342791,15.181947 c -1.169003,0 -2.116666,0.947665 -2.116666,2.116667 v 23.283332 c 0,0.584503 0.473831,1.058333 1.058333,1.058333 h 2.116666 c 0.584502,0 1.058334,-0.47383 1.058334,-1.058333 V 17.298614 c 0,-1.169002 -0.947664,-2.116667 -2.116667,-2.116667 z"
         sodipodi:nodetypes="ssssssss" />
      <path
         id="rect5535"
         style="display:inline;fill:#ffffff;fill-opacity:1;stroke:none;stroke-width:4.23333;stroke-linecap:round;stroke-linejoin:round;stroke-dasharray:none;stroke-opacity:1;enable-background:new"
         d="m 51.692791,13.06528 v 21.166666 c 2.345264,0 2.116667,-1.888069 2.116667,-4.233333 V 17.298614 c 0,-2.345265 0.228597,-4.233334 -2.116667,-4.233334 z"
         sodipodi:nodetypes="ccssc" />
      <rect
         style="display:inline;opacity:0.07;fill:#ffffff;fill-opacity:1;stroke:none;stroke-width:4.23333;stroke-linecap:round;stroke-linejoin:round;stroke-dasharray:none;stroke-opacity:1;enable-background:new"
         id="rect11578-3"
         width="2.1166666"
         height="0.52916664"
         x="44.284454"
         y="41.640282" />
    </g>
  </g>
</svg>
